# xmcd
#
# Track frame offsets:
#	150
#	18640
#	34196
#	70026
#	95562
#	109239
#	134893
#	157802
#
# Disc length: 2601 seconds
#
# Revision: 1
# Processed by: cddbd v1.5.2PL0 Copyright (c) Steve Scherf et al.
# Submitted via: audiograbber 1.83.01
#
DISCID=6b0a2708
DTITLE=Noah Wortherspoon - Live at the Cincinnati Blues Festival
DYEAR=2010
DGENRE=Blues
TTITLE0=Lonesome
TTITLE1=It Ain't Right
TTITLE2=Reconsider Baby
TTITLE3=Give Me Back My Wig
TTITLE4=Two-Faced Woman
TTITLE5=Dead Man's Shoes
TTITLE6=It Takes Time
TTITLE7=Voodoo Chile
EXTD=
EXTT0=
EXTT1=
EXTT2=
EXTT3=
EXTT4=
EXTT5=
EXTT6=
EXTT7=
PLAYORDER=
